# Blender v3.1.2 OBJ File: ''
# www.blender.org
mtllib houseOutofBlender.mtl
o housever2.001
v 0.000000 -1.000000 1.500000
v 0.000000 1.000000 1.500000
v -1.000000 1.000000 1.000000
v -1.000000 -1.000000 1.000000
v 1.000000 -1.000000 1.000000
v 1.000000 1.000000 1.000000
v -1.000000 1.000000 -1.000000
v -1.000000 -1.000000 -1.000000
v 1.000000 -1.000000 -1.000000
v 1.000000 1.000000 -1.000000
v -0.800000 -1.000000 -0.700000
v -0.800000 -1.000000 -0.250000
v -0.200000 -1.000000 -1.000000
v -0.400000 -1.000000 -0.700000
v -0.400000 -1.000000 -0.250000
v -0.200000 -1.000000 -0.200000
v 0.200000 -1.000000 -0.200000
v 0.200000 -1.000000 -1.000000
vn -1.0000 0.0000 0.0000
vn 1.0000 0.0000 0.0000
vn 0.0000 -1.0000 0.0000
vn 0.0000 1.0000 0.0000
vn 0.0000 0.0000 -1.0000
vn -0.4472 0.0000 0.8944
vn 0.4472 0.0000 0.8944
g housever2.001_housever2.001_Siding
usemtl Siding
s off
f 4//1 3//1 7//1 8//1
f 5//2 9//2 10//2 6//2
f 4//3 8//3 11//3 12//3
f 8//3 13//3 14//3 11//3
f 15//3 14//3 13//3 16//3
f 15//3 16//3 4//3
f 12//3 15//3 4//3
f 9//3 5//3 17//3 18//3
f 5//3 4//3 16//3 17//3
f 3//4 6//4 10//4 7//4
f 8//5 7//5 10//5 9//5
g housever2.001_housever2.001_Roof
usemtl Roof
f 1//6 2//6 3//6 4//6
f 4//3 5//3 1//3
f 6//4 3//4 2//4
f 5//7 6//7 2//7 1//7
