# Blender v3.1.2 OBJ File: ''
# www.blender.org
mtllib houseOutofBlenderWithTexture.mtl
o housever2.001
v 0.000000 -1.000000 1.500000
v 0.000000 1.000000 1.500000
v -1.000000 1.000000 1.000000
v -1.000000 -1.000000 1.000000
v 1.000000 -1.000000 1.000000
v 1.000000 1.000000 1.000000
v -1.000000 1.000000 -1.000000
v -1.000000 -1.000000 -1.000000
v 1.000000 -1.000000 -1.000000
v 1.000000 1.000000 -1.000000
v -0.800000 -1.000000 -0.700000
v -0.800000 -1.000000 -0.250000
v -0.200000 -1.000000 -1.000000
v -0.400000 -1.000000 -0.700000
v -0.400000 -1.000000 -0.250000
v -0.200000 -1.000000 -0.200000
v 0.200000 -1.000000 -0.200000
v 0.200000 -1.000000 -1.000000
vt 0.381708 0.547918
vt 0.380545 0.306683
vt 0.520529 0.306295
vt 0.520529 0.547918
vt 0.060797 0.546570
vt 0.060797 0.789355
vt 0.000101 0.667963
vt 0.999899 0.060797
vt 0.757114 0.060797
vt 0.878506 0.000101
vt 0.244824 0.547531
vt 0.243661 0.305133
vt 0.757114 0.303583
vt 0.757114 0.546368
vt 0.000101 0.546368
vt 0.000101 0.303583
vt 0.301645 0.548508
vt 0.267165 0.570849
vt 0.212538 0.570849
vt 0.303583 0.643684
vt 0.267165 0.619406
vt 0.212538 0.619406
vt 0.206469 0.643684
vt 0.303583 0.789355
vt 0.206469 0.692241
vt 0.303583 0.692241
vt 0.999899 0.303583
vt 0.999899 0.546368
vn -0.4472 0.0000 0.8944
vn 0.0000 -1.0000 0.0000
vn 0.0000 1.0000 0.0000
vn 0.4472 0.0000 0.8944
vn -1.0000 0.0000 0.0000
vn 1.0000 0.0000 0.0000
vn 0.0000 0.0000 -1.0000
g housever2.001_housever2.001_Material.002
usemtl Material.002
s off
f 1/1/1 2/2/1 3/3/1 4/4/1
f 4/5/2 5/6/2 1/7/2
f 6/8/3 3/9/3 2/10/3
f 5/11/4 6/12/4 2/2/4 1/1/4
f 4/4/5 3/3/5 7/13/5 8/14/5
f 5/11/6 9/15/6 10/16/6 6/12/6
f 4/5/2 8/17/2 11/18/2 12/19/2
f 8/17/2 13/20/2 14/21/2 11/18/2
f 15/22/2 14/21/2 13/20/2 16/23/2
f 15/22/2 16/23/2 4/5/2
f 12/19/2 15/22/2 4/5/2
f 9/24/2 5/6/2 17/25/2 18/26/2
f 5/6/2 4/5/2 16/23/2 17/25/2
f 3/9/3 6/8/3 10/27/3 7/13/3
f 8/14/7 7/13/7 10/27/7 9/28/7
